# xmcd
#
# Track frame offsets:
#	150
#	15279
#	33187
#	48297
#	63207
#	83683
#	97821
#	114030
#	133713
#	149904
#	165815
#	184022
#	201953
#	221698
#	238387
#	250779
#	268250
#	281955
#
# Disc length: 3936
#
# Revision: 1
# Processed by: cddbd v1.5.1PL0 Copyright (c) Steve Scherf et al.
# Submitted via: ExactAudioCopy v0.95a5
# Normalized: r0:TDELIM( - )
#
DISCID=f90f5e12
DTITLE=Various Artist - Promo Only Country Radio Feb 2005
DYEAR=1900
DGENRE=
TTITLE0=Goodbye Time (Album Version) - Blake Shelton
TTITLE1=Don't! - Shania Twain
TTITLE2=Piece of Work - Jimmy Buffett
TTITLE3=My Give A Damn's Busted - Jo Dee Messina
TTITLE4=Class Reunion (That Used To Be Us) - Lonestar
TTITLE5=Wake Up Older (Radio Version) - Julie Roberts
TTITLE6=She Daisy - Don't Worry 'Bout A Thing
TTITLE7=Soldier for the Lonely - Jedd Hughes
TTITLE8=Go Easy on Me - Lila Mccann
TTITLE9=God Save the World - Jeff Carson Ft. Lisa Brokop
TTITLE10=That's Why I Hate Pontiacs - Rebecca Lynn Howard
TTITLE11=Until You Find Your Mr. Right - Jay Teter
TTITLE12=Canyon Prayer - Jessi Alexander
TTITLE13=Good Hearted Man - Tift Merritt
TTITLE14=Something 'bout You - Wayne Warner
TTITLE15=I Want A Cowboy - Katrina Elam
TTITLE16=Opal's Blues - The Be Good Tanyas
TTITLE17=Clean Up Good - Kelly Michelle
EXTD=
EXTT0=
EXTT1=
EXTT2=
EXTT3=
EXTT4=
EXTT5=
EXTT6=
EXTT7=
EXTT8=
EXTT9=
EXTT10=
EXTT11=
EXTT12=
EXTT13=
EXTT14=
EXTT15=
EXTT16=
EXTT17=
PLAYORDER=
